<?xml version="1.0" encoding="UTF-8" standalone="no"?>
<svg
   xmlns:dc="http://purl.org/dc/elements/1.1/"
   xmlns:cc="http://creativecommons.org/ns#"
   xmlns:rdf="http://www.w3.org/1999/02/22-rdf-syntax-ns#"
   xmlns:svg="http://www.w3.org/2000/svg"
   xmlns="http://www.w3.org/2000/svg"
   xmlns:xlink="http://www.w3.org/1999/xlink"
   xmlns:sodipodi="http://sodipodi.sourceforge.net/DTD/sodipodi-0.dtd"
   xmlns:inkscape="http://www.inkscape.org/namespaces/inkscape"
   width="352.93521"
   height="20"
   version="1.1"
   id="svg28"
   sodipodi:docname="marketplace.svg"
   inkscape:version="1.0.1 (3bc2e813f5, 2020-09-07)">
  <metadata
     id="metadata34">
    <rdf:RDF>
      <cc:Work
         rdf:about="">
        <dc:format>image/svg+xml</dc:format>
        <dc:type
           rdf:resource="http://purl.org/dc/dcmitype/StillImage" />
        <dc:title></dc:title>
        <cc:license
           rdf:resource="MIT (c) L3D &lt;l3d@c3woc.de&gt;" />
        <dc:creator>
          <cc:Agent>
            <dc:title>3D &lt;l3d@c3woc.de&gt;</dc:title>
          </cc:Agent>
        </dc:creator>
        <dc:rights>
          <cc:Agent>
            <dc:title>MIT License</dc:title>
          </cc:Agent>
        </dc:rights>
      </cc:Work>
    </rdf:RDF>
  </metadata>
  <defs
     id="defs32">
    <linearGradient
       inkscape:collect="always"
       xlink:href="#b"
       id="linearGradient1244"
       gradientUnits="userSpaceOnUse"
       gradientTransform="scale(4.9067096,0.44280744)"
       x1="0"
       y1="-0.28392482"
       x2="0"
       y2="45.166359" />
    <linearGradient
       inkscape:collect="always"
       xlink:href="#b"
       id="linearGradient1084"
       gradientUnits="userSpaceOnUse"
       gradientTransform="scale(4.9067096,0.44280744)"
       x1="0"
       y1="-0.28392482"
       x2="0"
       y2="45.166359" />
    <linearGradient
       inkscape:collect="always"
       xlink:href="#b"
       id="linearGradient1086"
       gradientUnits="userSpaceOnUse"
       gradientTransform="scale(4.9067096,0.44280744)"
       x1="0"
       y1="-0.28392482"
       x2="0"
       y2="45.166359" />
  </defs>
  <sodipodi:namedview
     pagecolor="#ffffff"
     bordercolor="#666666"
     borderopacity="1"
     objecttolerance="10"
     gridtolerance="10"
     guidetolerance="10"
     inkscape:pageopacity="0"
     inkscape:pageshadow="2"
     inkscape:window-width="1916"
     inkscape:window-height="1152"
     id="namedview30"
     showgrid="false"
     showguides="true"
     inkscape:guide-bbox="true"
     inkscape:zoom="2.5442981"
     inkscape:cx="403.214"
     inkscape:cy="-30.554163"
     inkscape:window-x="2560"
     inkscape:window-y="22"
     inkscape:window-maximized="0"
     inkscape:current-layer="svg28"
     fit-margin-top="0"
     fit-margin-left="0"
     fit-margin-right="0"
     fit-margin-bottom="0"
     inkscape:document-rotation="0">
    <sodipodi:guide
       position="47.649406,5.6997979"
       orientation="0,1"
       id="guide4567"
       inkscape:locked="false" />
  </sodipodi:namedview>
  <linearGradient
     id="b"
     x2="0"
     y2="45.166359"
     gradientTransform="scale(2.258318,0.44280744)"
     x1="0"
     y1="-0.28392482"
     gradientUnits="userSpaceOnUse">
    <stop
       offset="0"
       stop-color="#bbb"
       stop-opacity=".1"
       id="stop2" />
    <stop
       offset="1"
       stop-opacity=".1"
       id="stop4" />
  </linearGradient>
  <clipPath
     id="a">
    <rect
       width="102"
       height="20"
       rx="3"
       id="rect7"
       x="0"
       y="0"
       style="fill:#ffffff" />
  </clipPath>
  <path
     sodipodi:nodetypes="sccssss"
     inkscape:connector-curvature="0"
     id="path4637"
     d="M 349.557,0 H 74 v 20 h 275.557 c 1.87153,0 3.37821,-1.506683 3.37821,-3.378212 V 3.378212 C 352.93521,1.506682 351.42853,0 349.557,0 Z"
     style="opacity:1;vector-effect:none;fill:#28a745;fill-opacity:1;stroke:none;stroke-width:1.47402;stroke-linecap:butt;stroke-linejoin:miter;stroke-miterlimit:4;stroke-dasharray:none;stroke-dashoffset:0;stroke-opacity:1;paint-order:stroke fill markers" />
  <path
     style="opacity:1;vector-effect:none;fill:#4d4d4d;fill-opacity:1;stroke:none;stroke-width:1.47402;stroke-linecap:butt;stroke-linejoin:miter;stroke-miterlimit:4;stroke-dasharray:none;stroke-dashoffset:0;stroke-opacity:1;paint-order:stroke fill markers"
     d="m 3.378212,0 h 86.55806 V 20 H 3.378212 C 1.506682,20 0,18.493317 0,16.621788 V 3.378212 C 0,1.506682 1.506682,0 3.378212,0 Z"
     id="rect4634"
     inkscape:connector-curvature="0"
     sodipodi:nodetypes="sccssss" />
  <rect
     style="opacity:1;vector-effect:none;fill:url(#linearGradient1084);fill-opacity:1;stroke:none;stroke-width:1.47402;stroke-linecap:butt;stroke-linejoin:miter;stroke-miterlimit:4;stroke-dasharray:none;stroke-dashoffset:0;stroke-opacity:1;paint-order:stroke fill markers"
     id="rect976"
     width="352.88037"
     height="19.988855"
     x="0"
     y="0"
     ry="3.3782117" />
  <rect
     style="opacity:1;vector-effect:none;fill:url(#linearGradient1086);fill-opacity:1;stroke:none;stroke-width:1.47402;stroke-linecap:butt;stroke-linejoin:miter;stroke-miterlimit:4;stroke-dasharray:none;stroke-dashoffset:0;stroke-opacity:1;paint-order:stroke fill markers"
     id="rect1238"
     width="352.88037"
     height="19.988855"
     x="0"
     y="0"
     ry="3.3782117" />
  <rect
     style="opacity:1;vector-effect:none;fill:url(#linearGradient1244);fill-opacity:1;stroke:none;stroke-width:1.47402;stroke-linecap:butt;stroke-linejoin:miter;stroke-miterlimit:4;stroke-dasharray:none;stroke-dashoffset:0;stroke-opacity:1;paint-order:stroke fill markers"
     id="rect978"
     width="352.88037"
     height="19.988855"
     x="0"
     y="0"
     ry="3.3782117" />
  <g
     id="g935"
     transform="translate(12)">
    <g
       id="g904"
       style="font-style:normal;font-variant:normal;font-weight:normal;font-stretch:normal;font-size:11px;line-height:1.25;font-family:'DejaVu Sans', Verdana, Geneva, sans-serif;-inkscape-font-specification:'DejaVu Sans, Verdana, Geneva, sans-serif, Normal';font-variant-ligatures:normal;font-variant-caps:normal;font-variant-numeric:normal;font-feature-settings:normal;text-align:start;letter-spacing:0px;word-spacing:0px;writing-mode:lr-tb;text-anchor:start;opacity:1;vector-effect:none;fill:#010101;fill-opacity:0.3;stroke:none;stroke-width:0.1;stroke-linecap:butt;stroke-linejoin:miter;stroke-miterlimit:4;stroke-dasharray:none;stroke-dashoffset:0;stroke-opacity:1"
       aria-label="Marketplace"
       transform="translate(0.00537139,1.192937)">
      <path
         style="vector-effect:none;fill:#010101;fill-opacity:0.3;stroke-width:0.1;stroke-linecap:butt;stroke-linejoin:miter;stroke-miterlimit:4;stroke-dasharray:none;stroke-dashoffset:0;stroke-opacity:1"
         inkscape:connector-curvature="0"
         id="path882"
         d="m 7.0639615,5.9564095 h 1.6166992 l 2.0463863,5.4570315 2.057129,-5.4570315 h 1.6167 V 13.975452 H 13.34277 V 6.9339485 L 11.274899,12.433949 H 10.184567 L 8.1166959,6.9339485 V 13.975452 H 7.0639615 Z" />
      <path
         style="vector-effect:none;fill:#010101;fill-opacity:0.3;stroke-width:0.1;stroke-linecap:butt;stroke-linejoin:miter;stroke-miterlimit:4;stroke-dasharray:none;stroke-dashoffset:0;stroke-opacity:1"
         inkscape:connector-curvature="0"
         id="path884"
         d="m 19.245602,10.951527 q -1.197754,0 -1.659668,0.273925 -0.461914,0.273926 -0.461914,0.934571 0,0.526367 0.34375,0.83789 0.349121,0.306153 0.945313,0.306153 0.821777,0 1.315918,-0.580078 0.499511,-0.58545 0.499511,-1.552247 v -0.220214 z m 1.971192,-0.408203 v 3.432128 h -0.988282 v -0.913086 q -0.338379,0.547852 -0.843261,0.811036 -0.504883,0.257812 -1.235352,0.257812 -0.923828,0 -1.47168,-0.515625 -0.54248,-0.520996 -0.54248,-1.391113 0,-1.015137 0.676758,-1.530762 0.682129,-0.515625 2.030273,-0.515625 h 1.385742 v -0.09668 q 0,-0.6821285 -0.451172,-1.0527339 -0.4458,-0.3759766 -1.256836,-0.3759766 -0.515625,0 -1.004394,0.1235352 -0.48877,0.1235351 -0.939941,0.3706054 V 8.2337532 q 0.54248,-0.2094727 1.052734,-0.3115234 0.510254,-0.1074219 0.993652,-0.1074219 1.305176,0 1.949707,0.6767578 0.644532,0.6767578 0.644532,2.0517583 z" />
      <path
         style="vector-effect:none;fill:#010101;fill-opacity:0.3;stroke-width:0.1;stroke-linecap:butt;stroke-linejoin:miter;stroke-miterlimit:4;stroke-dasharray:none;stroke-dashoffset:0;stroke-opacity:1"
         inkscape:connector-curvature="0"
         id="path886"
         d="m 26.738278,8.8836555 q -0.166504,-0.09668 -0.365234,-0.1396484 -0.19336,-0.04834 -0.429688,-0.04834 -0.837891,0 -1.289062,0.5478515 -0.445801,0.5424805 -0.445801,1.5629884 v 3.168945 H 23.21484 V 7.9598274 h 0.993653 v 0.9345703 q 0.311523,-0.5478515 0.811035,-0.8110351 0.499512,-0.2685547 1.213867,-0.2685547 0.102051,0 0.225586,0.016113 0.123535,0.010742 0.273926,0.037598 z" />
      <path
         style="vector-effect:none;fill:#010101;fill-opacity:0.3;stroke-width:0.1;stroke-linecap:butt;stroke-linejoin:miter;stroke-miterlimit:4;stroke-dasharray:none;stroke-dashoffset:0;stroke-opacity:1"
         inkscape:connector-curvature="0"
         id="path888"
         d="m 27.737301,5.6180305 h 0.993653 v 4.9360355 l 2.94873,-2.5942386 h 1.262207 l -3.190429,2.8144536 3.324707,3.201171 h -1.289063 l -3.056152,-2.937988 v 2.937988 h -0.993653 z" />
      <path
         style="vector-effect:none;fill:#010101;fill-opacity:0.3;stroke-width:0.1;stroke-linecap:butt;stroke-linejoin:miter;stroke-miterlimit:4;stroke-dasharray:none;stroke-dashoffset:0;stroke-opacity:1"
         inkscape:connector-curvature="0"
         id="path890"
         d="m 38.898434,10.72057 v 0.483398 h -4.543945 q 0.06445,1.020508 0.612305,1.557617 0.553222,0.531739 1.536132,0.531739 0.569336,0 1.101075,-0.139649 0.537109,-0.139648 1.063476,-0.418945 v 0.93457 q -0.531738,0.225586 -1.090332,0.34375 -0.558594,0.118164 -1.133301,0.118164 -1.439453,0 -2.282715,-0.83789 -0.83789,-0.837891 -0.83789,-2.266602 0,-1.4770508 0.794922,-2.3417969 0.800293,-0.8701172 2.153808,-0.8701172 1.213868,0 1.917481,0.7841797 0.708984,0.7788086 0.708984,2.1215824 z M 37.910153,10.430531 Q 37.899411,9.6194954 37.45361,9.136097 37.01318,8.6526985 36.282712,8.6526985 q -0.827149,0 -1.326661,0.4672852 -0.49414,0.4672851 -0.569336,1.3159183 z" />
      <path
         style="vector-effect:none;fill:#010101;fill-opacity:0.3;stroke-width:0.1;stroke-linecap:butt;stroke-linejoin:miter;stroke-miterlimit:4;stroke-dasharray:none;stroke-dashoffset:0;stroke-opacity:1"
         inkscape:connector-curvature="0"
         id="path892"
         d="m 41.498044,6.2518196 v 1.7080078 h 2.035644 v 0.7680664 h -2.035644 v 3.2656252 q 0,0.73584 0.19873,0.945312 0.204102,0.209473 0.821777,0.209473 h 1.015137 v 0.827148 h -1.015137 q -1.144043,0 -1.579101,-0.424316 -0.435059,-0.429687 -0.435059,-1.557617 V 8.7278938 H 39.779294 V 7.9598274 h 0.725097 V 6.2518196 Z" />
      <path
         style="vector-effect:none;fill:#010101;fill-opacity:0.3;stroke-width:0.1;stroke-linecap:butt;stroke-linejoin:miter;stroke-miterlimit:4;stroke-dasharray:none;stroke-dashoffset:0;stroke-opacity:1"
         inkscape:connector-curvature="0"
         id="path894"
         d="m 45.789547,13.073109 v 3.190429 H 44.795895 V 7.9598274 h 0.993652 v 0.913086 q 0.311524,-0.5371094 0.78418,-0.7949219 0.478027,-0.2631836 1.138672,-0.2631836 1.095703,0 1.777832,0.8701172 0.6875,0.8701172 0.6875,2.2880859 0,1.417969 -0.6875,2.288086 -0.682129,0.870117 -1.777832,0.870117 -0.660645,0 -1.138672,-0.257812 -0.472656,-0.263184 -0.78418,-0.800293 z m 3.362305,-2.100098 q 0,-1.090332 -0.451172,-1.7080078 -0.445801,-0.6230469 -1.22998,-0.6230469 -0.78418,0 -1.235352,0.6230469 -0.445801,0.6176758 -0.445801,1.7080078 0,1.090332 0.445801,1.713379 0.451172,0.617676 1.235352,0.617676 0.784179,0 1.22998,-0.617676 0.451172,-0.623047 0.451172,-1.713379 z" />
      <path
         style="vector-effect:none;fill:#010101;fill-opacity:0.3;stroke-width:0.1;stroke-linecap:butt;stroke-linejoin:miter;stroke-miterlimit:4;stroke-dasharray:none;stroke-dashoffset:0;stroke-opacity:1"
         inkscape:connector-curvature="0"
         id="path896"
         d="m 51.815915,5.6180305 h 0.988281 v 8.3574215 h -0.988281 z" />
      <path
         style="vector-effect:none;fill:#010101;fill-opacity:0.3;stroke-width:0.1;stroke-linecap:butt;stroke-linejoin:miter;stroke-miterlimit:4;stroke-dasharray:none;stroke-dashoffset:0;stroke-opacity:1"
         inkscape:connector-curvature="0"
         id="path898"
         d="m 57.605954,10.951527 q -1.197754,0 -1.659668,0.273925 -0.461914,0.273926 -0.461914,0.934571 0,0.526367 0.34375,0.83789 0.349121,0.306153 0.945312,0.306153 0.821778,0 1.315918,-0.580078 0.499512,-0.58545 0.499512,-1.552247 v -0.220214 z m 1.971191,-0.408203 v 3.432128 h -0.988281 v -0.913086 q -0.338379,0.547852 -0.843262,0.811036 -0.504883,0.257812 -1.235351,0.257812 -0.923829,0 -1.47168,-0.515625 -0.542481,-0.520996 -0.542481,-1.391113 0,-1.015137 0.676758,-1.530762 0.682129,-0.515625 2.030274,-0.515625 h 1.385742 v -0.09668 q 0,-0.6821285 -0.451172,-1.0527339 -0.445801,-0.3759766 -1.256836,-0.3759766 -0.515625,0 -1.004394,0.1235352 -0.48877,0.1235351 -0.939942,0.3706054 V 8.2337532 q 0.542481,-0.2094727 1.052734,-0.3115234 0.510254,-0.1074219 0.993653,-0.1074219 1.305176,0 1.949707,0.6767578 0.644531,0.6767578 0.644531,2.0517583 z" />
      <path
         style="vector-effect:none;fill:#010101;fill-opacity:0.3;stroke-width:0.1;stroke-linecap:butt;stroke-linejoin:miter;stroke-miterlimit:4;stroke-dasharray:none;stroke-dashoffset:0;stroke-opacity:1"
         inkscape:connector-curvature="0"
         id="path900"
         d="m 65.941891,8.1907845 v 0.9238281 q -0.418945,-0.2309571 -0.843262,-0.34375 -0.418945,-0.1181641 -0.848632,-0.1181641 -0.961426,0 -1.493164,0.6123047 -0.531739,0.6069336 -0.531739,1.7080078 0,1.101074 0.531739,1.713379 0.531738,0.606934 1.493164,0.606934 0.429687,0 0.848632,-0.112793 0.424317,-0.118165 0.843262,-0.349122 v 0.913086 q -0.413574,0.19336 -0.859375,0.290039 -0.440429,0.09668 -0.939941,0.09668 -1.358887,0 -2.15918,-0.854004 -0.800293,-0.854004 -0.800293,-2.304199 0,-1.4716797 0.805664,-2.3149414 0.811035,-0.8432617 2.218262,-0.8432617 0.456543,0 0.891601,0.09668 0.435059,0.091309 0.843262,0.2792966 z" />
      <path
         style="vector-effect:none;fill:#010101;fill-opacity:0.3;stroke-width:0.1;stroke-linecap:butt;stroke-linejoin:miter;stroke-miterlimit:4;stroke-dasharray:none;stroke-dashoffset:0;stroke-opacity:1"
         inkscape:connector-curvature="0"
         id="path902"
         d="m 72.806149,10.72057 v 0.483398 h -4.543945 q 0.06445,1.020508 0.612304,1.557617 0.553223,0.531739 1.536133,0.531739 0.569336,0 1.101074,-0.139649 0.53711,-0.139648 1.063477,-0.418945 v 0.93457 q -0.531738,0.225586 -1.090332,0.34375 -0.558594,0.118164 -1.133301,0.118164 -1.439453,0 -2.282715,-0.83789 -0.83789,-0.837891 -0.83789,-2.266602 0,-1.4770508 0.794922,-2.3417969 0.800293,-0.8701172 2.153808,-0.8701172 1.213867,0 1.917481,0.7841797 0.708984,0.7788086 0.708984,2.1215824 z m -0.988281,-0.290039 q -0.01074,-0.8110356 -0.456543,-1.294434 -0.44043,-0.4833985 -1.170899,-0.4833985 -0.827148,0 -1.32666,0.4672852 -0.49414,0.4672851 -0.569336,1.3159183 z" />
    </g>
    <g
       transform="translate(3.9474745e-7,0.1778004)"
       aria-label="Marketplace"
       style="font-style:normal;font-variant:normal;font-weight:normal;font-stretch:normal;font-size:11px;line-height:1.25;font-family:'DejaVu Sans', Verdana, Geneva, sans-serif;-inkscape-font-specification:'DejaVu Sans, Verdana, Geneva, sans-serif, Normal';font-variant-ligatures:normal;font-variant-caps:normal;font-variant-numeric:normal;font-feature-settings:normal;text-align:start;letter-spacing:0px;word-spacing:0px;writing-mode:lr-tb;text-anchor:start;fill:#ffffff;fill-opacity:1;stroke:none"
       id="text835">
      <path
         d="m 7.0639615,5.9564095 h 1.6166992 l 2.0463863,5.4570315 2.057129,-5.4570315 h 1.6167 V 13.975452 H 13.34277 V 6.9339485 L 11.274899,12.433949 H 10.184567 L 8.1166959,6.9339485 V 13.975452 H 7.0639615 Z"
         id="path837"
         inkscape:connector-curvature="0" />
      <path
         d="m 19.245602,10.951527 q -1.197754,0 -1.659668,0.273925 -0.461914,0.273926 -0.461914,0.934571 0,0.526367 0.34375,0.83789 0.349121,0.306153 0.945313,0.306153 0.821777,0 1.315918,-0.580078 0.499511,-0.58545 0.499511,-1.552247 v -0.220214 z m 1.971192,-0.408203 v 3.432128 h -0.988282 v -0.913086 q -0.338379,0.547852 -0.843261,0.811036 -0.504883,0.257812 -1.235352,0.257812 -0.923828,0 -1.47168,-0.515625 -0.54248,-0.520996 -0.54248,-1.391113 0,-1.015137 0.676758,-1.530762 0.682129,-0.515625 2.030273,-0.515625 h 1.385742 v -0.09668 q 0,-0.6821285 -0.451172,-1.0527339 -0.4458,-0.3759766 -1.256836,-0.3759766 -0.515625,0 -1.004394,0.1235352 -0.48877,0.1235351 -0.939941,0.3706054 V 8.2337532 q 0.54248,-0.2094727 1.052734,-0.3115234 0.510254,-0.1074219 0.993652,-0.1074219 1.305176,0 1.949707,0.6767578 0.644532,0.6767578 0.644532,2.0517583 z"
         id="path839"
         inkscape:connector-curvature="0" />
      <path
         d="m 26.738278,8.8836555 q -0.166504,-0.09668 -0.365234,-0.1396484 -0.19336,-0.04834 -0.429688,-0.04834 -0.837891,0 -1.289062,0.5478515 -0.445801,0.5424805 -0.445801,1.5629884 v 3.168945 H 23.21484 V 7.9598274 h 0.993653 v 0.9345703 q 0.311523,-0.5478515 0.811035,-0.8110351 0.499512,-0.2685547 1.213867,-0.2685547 0.102051,0 0.225586,0.016113 0.123535,0.010742 0.273926,0.037598 z"
         id="path841"
         inkscape:connector-curvature="0" />
      <path
         d="m 27.737301,5.6180305 h 0.993653 v 4.9360355 l 2.94873,-2.5942386 h 1.262207 l -3.190429,2.8144536 3.324707,3.201171 h -1.289063 l -3.056152,-2.937988 v 2.937988 h -0.993653 z"
         id="path843"
         inkscape:connector-curvature="0" />
      <path
         d="m 38.898434,10.72057 v 0.483398 h -4.543945 q 0.06445,1.020508 0.612305,1.557617 0.553222,0.531739 1.536132,0.531739 0.569336,0 1.101075,-0.139649 0.537109,-0.139648 1.063476,-0.418945 v 0.93457 q -0.531738,0.225586 -1.090332,0.34375 -0.558594,0.118164 -1.133301,0.118164 -1.439453,0 -2.282715,-0.83789 -0.83789,-0.837891 -0.83789,-2.266602 0,-1.4770508 0.794922,-2.3417969 0.800293,-0.8701172 2.153808,-0.8701172 1.213868,0 1.917481,0.7841797 0.708984,0.7788086 0.708984,2.1215824 z M 37.910153,10.430531 Q 37.899411,9.6194954 37.45361,9.136097 37.01318,8.6526985 36.282712,8.6526985 q -0.827149,0 -1.326661,0.4672852 -0.49414,0.4672851 -0.569336,1.3159183 z"
         id="path845"
         inkscape:connector-curvature="0" />
      <path
         d="m 41.498044,6.2518196 v 1.7080078 h 2.035644 v 0.7680664 h -2.035644 v 3.2656252 q 0,0.73584 0.19873,0.945312 0.204102,0.209473 0.821777,0.209473 h 1.015137 v 0.827148 h -1.015137 q -1.144043,0 -1.579101,-0.424316 -0.435059,-0.429687 -0.435059,-1.557617 V 8.7278938 H 39.779294 V 7.9598274 h 0.725097 V 6.2518196 Z"
         id="path847"
         inkscape:connector-curvature="0" />
      <path
         d="m 45.789547,13.073109 v 3.190429 H 44.795895 V 7.9598274 h 0.993652 v 0.913086 q 0.311524,-0.5371094 0.78418,-0.7949219 0.478027,-0.2631836 1.138672,-0.2631836 1.095703,0 1.777832,0.8701172 0.6875,0.8701172 0.6875,2.2880859 0,1.417969 -0.6875,2.288086 -0.682129,0.870117 -1.777832,0.870117 -0.660645,0 -1.138672,-0.257812 -0.472656,-0.263184 -0.78418,-0.800293 z m 3.362305,-2.100098 q 0,-1.090332 -0.451172,-1.7080078 -0.445801,-0.6230469 -1.22998,-0.6230469 -0.78418,0 -1.235352,0.6230469 -0.445801,0.6176758 -0.445801,1.7080078 0,1.090332 0.445801,1.713379 0.451172,0.617676 1.235352,0.617676 0.784179,0 1.22998,-0.617676 0.451172,-0.623047 0.451172,-1.713379 z"
         id="path849"
         inkscape:connector-curvature="0" />
      <path
         d="m 51.815915,5.6180305 h 0.988281 v 8.3574215 h -0.988281 z"
         id="path851"
         inkscape:connector-curvature="0" />
      <path
         d="m 57.605954,10.951527 q -1.197754,0 -1.659668,0.273925 -0.461914,0.273926 -0.461914,0.934571 0,0.526367 0.34375,0.83789 0.349121,0.306153 0.945312,0.306153 0.821778,0 1.315918,-0.580078 0.499512,-0.58545 0.499512,-1.552247 v -0.220214 z m 1.971191,-0.408203 v 3.432128 h -0.988281 v -0.913086 q -0.338379,0.547852 -0.843262,0.811036 -0.504883,0.257812 -1.235351,0.257812 -0.923829,0 -1.47168,-0.515625 -0.542481,-0.520996 -0.542481,-1.391113 0,-1.015137 0.676758,-1.530762 0.682129,-0.515625 2.030274,-0.515625 h 1.385742 v -0.09668 q 0,-0.6821285 -0.451172,-1.0527339 -0.445801,-0.3759766 -1.256836,-0.3759766 -0.515625,0 -1.004394,0.1235352 -0.48877,0.1235351 -0.939942,0.3706054 V 8.2337532 q 0.542481,-0.2094727 1.052734,-0.3115234 0.510254,-0.1074219 0.993653,-0.1074219 1.305176,0 1.949707,0.6767578 0.644531,0.6767578 0.644531,2.0517583 z"
         id="path853"
         inkscape:connector-curvature="0" />
      <path
         d="m 65.941891,8.1907845 v 0.9238281 q -0.418945,-0.2309571 -0.843262,-0.34375 -0.418945,-0.1181641 -0.848632,-0.1181641 -0.961426,0 -1.493164,0.6123047 -0.531739,0.6069336 -0.531739,1.7080078 0,1.101074 0.531739,1.713379 0.531738,0.606934 1.493164,0.606934 0.429687,0 0.848632,-0.112793 0.424317,-0.118165 0.843262,-0.349122 v 0.913086 q -0.413574,0.19336 -0.859375,0.290039 -0.440429,0.09668 -0.939941,0.09668 -1.358887,0 -2.15918,-0.854004 -0.800293,-0.854004 -0.800293,-2.304199 0,-1.4716797 0.805664,-2.3149414 0.811035,-0.8432617 2.218262,-0.8432617 0.456543,0 0.891601,0.09668 0.435059,0.091309 0.843262,0.2792966 z"
         id="path855"
         inkscape:connector-curvature="0" />
      <path
         d="m 72.806149,10.72057 v 0.483398 h -4.543945 q 0.06445,1.020508 0.612304,1.557617 0.553223,0.531739 1.536133,0.531739 0.569336,0 1.101074,-0.139649 0.53711,-0.139648 1.063477,-0.418945 v 0.93457 q -0.531738,0.225586 -1.090332,0.34375 -0.558594,0.118164 -1.133301,0.118164 -1.439453,0 -2.282715,-0.83789 -0.83789,-0.837891 -0.83789,-2.266602 0,-1.4770508 0.794922,-2.3417969 0.800293,-0.8701172 2.153808,-0.8701172 1.213867,0 1.917481,0.7841797 0.708984,0.7788086 0.708984,2.1215824 z m -0.988281,-0.290039 q -0.01074,-0.8110356 -0.456543,-1.294434 -0.44043,-0.4833985 -1.170899,-0.4833985 -0.827148,0 -1.32666,0.4672852 -0.49414,0.4672851 -0.569336,1.3159183 z"
         id="path857"
         inkscape:connector-curvature="0" />
    </g>
  </g>
  <g
     transform="matrix(0.46918087,0,0,0.46918087,4.249364,4.630925)"
     id="g1012"
     style="color:#ffffff;opacity:1;vector-effect:none;fill:#010101;fill-opacity:0.3;stroke:none;stroke-width:0.232558;stroke-linecap:butt;stroke-linejoin:miter;stroke-miterlimit:4;stroke-dasharray:none;stroke-dashoffset:0;stroke-opacity:1">
    <circle
       cx="12"
       cy="12"
       r="10"
       id="circle998"
       style="vector-effect:none;fill:#010101;fill-opacity:0.3;stroke:none;stroke-width:0.232558;stroke-linecap:butt;stroke-linejoin:miter;stroke-miterlimit:4;stroke-dasharray:none;stroke-dashoffset:0;stroke-opacity:1" />
    <line
       x1="14.31"
       y1="8"
       x2="20.049999"
       y2="17.940001"
       id="line1000"
       style="vector-effect:none;fill:#010101;fill-opacity:0.3;stroke:none;stroke-width:0.232558;stroke-linecap:butt;stroke-linejoin:miter;stroke-miterlimit:4;stroke-dasharray:none;stroke-dashoffset:0;stroke-opacity:1" />
    <line
       x1="9.6899996"
       y1="8"
       x2="21.17"
       y2="8"
       id="line1002"
       style="vector-effect:none;fill:#010101;fill-opacity:0.3;stroke:none;stroke-width:0.232558;stroke-linecap:butt;stroke-linejoin:miter;stroke-miterlimit:4;stroke-dasharray:none;stroke-dashoffset:0;stroke-opacity:1" />
    <line
       x1="7.3800001"
       y1="12"
       x2="13.12"
       y2="2.0599999"
       id="line1004"
       style="vector-effect:none;fill:#010101;fill-opacity:0.3;stroke:none;stroke-width:0.232558;stroke-linecap:butt;stroke-linejoin:miter;stroke-miterlimit:4;stroke-dasharray:none;stroke-dashoffset:0;stroke-opacity:1" />
    <line
       x1="9.6899996"
       y1="16"
       x2="3.95"
       y2="6.0599999"
       id="line1006"
       style="vector-effect:none;fill:#010101;fill-opacity:0.3;stroke:none;stroke-width:0.232558;stroke-linecap:butt;stroke-linejoin:miter;stroke-miterlimit:4;stroke-dasharray:none;stroke-dashoffset:0;stroke-opacity:1" />
    <line
       x1="14.31"
       y1="16"
       x2="2.8299999"
       y2="16"
       id="line1008"
       style="vector-effect:none;fill:#010101;fill-opacity:0.3;stroke:none;stroke-width:0.232558;stroke-linecap:butt;stroke-linejoin:miter;stroke-miterlimit:4;stroke-dasharray:none;stroke-dashoffset:0;stroke-opacity:1" />
    <line
       x1="16.620001"
       y1="12"
       x2="10.88"
       y2="21.940001"
       id="line1010"
       style="vector-effect:none;fill:#010101;fill-opacity:0.3;stroke:none;stroke-width:0.232558;stroke-linecap:butt;stroke-linejoin:miter;stroke-miterlimit:4;stroke-dasharray:none;stroke-dashoffset:0;stroke-opacity:1" />
  </g>
  <g
     style="color:#ffffff;fill:none;stroke:currentColor;stroke-width:2;stroke-linecap:round;stroke-linejoin:round"
     id="g987"
     transform="matrix(0.42999999,0,0,0.42999999,4.758716,4.258998)">
    <circle
       id="circle958"
       r="10"
       cy="12"
       cx="12" />
    <line
       id="line960"
       y2="17.940001"
       x2="20.049999"
       y1="8"
       x1="14.31" />
    <line
       id="line962"
       y2="8"
       x2="21.17"
       y1="8"
       x1="9.6899996" />
    <line
       id="line964"
       y2="2.0599999"
       x2="13.12"
       y1="12"
       x1="7.3800001" />
    <line
       id="line966"
       y2="6.0599999"
       x2="3.95"
       y1="16"
       x1="9.6899996" />
    <line
       id="line968"
       y2="16"
       x2="2.8299999"
       y1="16"
       x1="14.31" />
    <line
       id="line970"
       y2="21.940001"
       x2="10.88"
       y1="12"
       x1="16.620001" />
  </g>
  <text
     xml:space="preserve"
     style="font-size:11.0961px;line-height:1.25;font-family:Lato;-inkscape-font-specification:Lato;font-variation-settings:normal;letter-spacing:0px;word-spacing:0px;opacity:1;vector-effect:none;fill:#000000;fill-opacity:0.3;stroke:none;stroke-width:0.0876126;stroke-linecap:butt;stroke-linejoin:miter;stroke-miterlimit:4;stroke-dasharray:none;stroke-dashoffset:0;stroke-opacity:1;stop-color:#000000;stop-opacity:1"
     x="99.023331"
     y="14.933352"
     id="text982"><tspan
       sodipodi:role="line"
       id="tspan980"
       x="99.023331"
       y="14.933352"
       style="font-size:11.0961px;font-variation-settings:normal;vector-effect:none;fill:#000000;fill-opacity:0.3;stroke:none;stroke-width:0.0876126;stroke-linecap:butt;stroke-linejoin:miter;stroke-miterlimit:4;stroke-dasharray:none;stroke-dashoffset:0;stroke-opacity:1;stop-color:#000000;stop-opacity:1">roles-ansible/check-ansible-centos-centos8-action</tspan></text>
  <text
     xml:space="preserve"
     style="font-size:11.0961px;line-height:1.25;font-family:Lato;-inkscape-font-specification:Lato;letter-spacing:0px;word-spacing:0px;fill:#ffffff;stroke-width:1.04025"
     x="99.142593"
     y="14.108552"
     id="text974"><tspan
       sodipodi:role="line"
       id="tspan972"
       x="99.142593"
       y="14.108552"
       style="font-size:11.0961px;fill:#ffffff;stroke-width:1.04025">roles-ansible/check-ansible-centos-centos8-action</tspan></text>
</svg>
